<svg width="33" height="33" viewBox="0 0 33 33" fill="none" xmlns="http://www.w3.org/2000/svg">
<g clip-path="url(#clip0_530_1637)">
<path d="M18.7233 20.8365H17.7296L17.3774 20.4969C18.6101 19.0629 19.3522 17.2013 19.3522 15.1761C19.3522 10.6604 15.6918 7 11.1761 7C6.66038 7 3 10.6604 3 15.1761C3 19.6918 6.66038 23.3522 11.1761 23.3522C13.2013 23.3522 15.0629 22.6101 16.4969 21.3774L16.8365 21.7296V22.7233L23.1258 29L25 27.1258L18.7233 20.8365ZM11.1761 20.8365C8.04402 20.8365 5.51572 18.3082 5.51572 15.1761C5.51572 12.044 8.04402 9.51572 11.1761 9.51572C14.3082 9.51572 16.8365 12.044 16.8365 15.1761C16.8365 18.3082 14.3082 20.8365 11.1761 20.8365Z" fill="#6F5656"/>
</g>
<defs>
<clipPath id="clip0_530_1637">
<rect width="33" height="33" fill="white"/>
</clipPath>
</defs>
</svg>
