<svg width="24" height="24" viewBox="0 0 24 24" fill="none" xmlns="http://www.w3.org/2000/svg">
<g clip-path="url(#clip0_530_1643)">
<path d="M12 16.875C14.0711 16.875 15.75 15.1961 15.75 13.125C15.75 11.0539 14.0711 9.375 12 9.375C9.92893 9.375 8.25 11.0539 8.25 13.125C8.25 15.1961 9.92893 16.875 12 16.875Z" stroke="#6F5656" stroke-opacity="0.8" stroke-width="2.25" stroke-linecap="round" stroke-linejoin="round"/>
<path d="M6.59998 20.25C7.09387 19.2385 7.86193 18.3861 8.81664 17.7898C9.77136 17.1935 10.8744 16.8774 12 16.8774C13.1256 16.8774 14.2286 17.1935 15.1833 17.7898C16.138 18.3861 16.9061 19.2385 17.4 20.25" stroke="#6F5656" stroke-opacity="0.8" stroke-width="2.25" stroke-linecap="round" stroke-linejoin="round"/>
<path d="M19.1719 10.9313C20.6479 11.1437 21.9796 11.9325 22.875 13.125" stroke="#6F5656" stroke-opacity="0.8" stroke-width="2.25" stroke-linecap="round" stroke-linejoin="round"/>
<path d="M15.6656 6.58124C15.8835 6.12663 16.2123 5.73424 16.6218 5.44031C17.0314 5.14637 17.5083 4.96037 18.0087 4.89947C18.5091 4.83858 19.0168 4.90476 19.4849 5.0919C19.9529 5.27904 20.3663 5.5811 20.6868 5.9702C21.0073 6.3593 21.2245 6.82288 21.3185 7.31812C21.4125 7.81337 21.3802 8.32432 21.2246 8.80378C21.0689 9.28324 20.795 9.71575 20.428 10.0614C20.0611 10.407 19.6129 10.6546 19.125 10.7812" stroke="#6F5656" stroke-opacity="0.8" stroke-width="2.25" stroke-linecap="round" stroke-linejoin="round"/>
<path d="M4.87502 10.7812C4.38711 10.6546 3.93898 10.407 3.57203 10.0614C3.20508 9.71575 2.93113 9.28324 2.77549 8.80378C2.61984 8.32432 2.58753 7.81337 2.68152 7.31812C2.77551 6.82288 2.99278 6.3593 3.31327 5.9702C3.63375 5.5811 4.04711 5.27904 4.51518 5.0919C4.98324 4.90476 5.49091 4.83858 5.99131 4.89947C6.49171 4.96037 6.96869 5.14637 7.37821 5.44031C7.78774 5.73424 8.11659 6.12663 8.3344 6.58124" stroke="#6F5656" stroke-opacity="0.8" stroke-width="2.25" stroke-linecap="round" stroke-linejoin="round"/>
<path d="M1.125 13.125C2.02043 11.9325 3.35208 11.1437 4.82812 10.9313" stroke="#6F5656" stroke-opacity="0.8" stroke-width="2.25" stroke-linecap="round" stroke-linejoin="round"/>
</g>
<defs>
<clipPath id="clip0_530_1643">
<rect width="24" height="24" fill="white"/>
</clipPath>
</defs>
</svg>
