<svg width="31" height="12" viewBox="0 0 31 12" fill="none" xmlns="http://www.w3.org/2000/svg">
<path d="M5.89521 10.7681L5.89449 10.7674C4.21072 9.2313 2.8536 7.99202 1.9114 6.83309C0.975032 5.68133 0.5 4.66944 0.5 3.59673C0.5 1.85584 1.85199 0.5 3.575 0.5C4.55347 0.5 5.50126 0.960719 6.11836 1.68979L6.5 2.14068L6.88164 1.68979C7.49874 0.960719 8.44653 0.5 9.425 0.5C11.148 0.5 12.5 1.85584 12.5 3.59673C12.5 4.66945 12.025 5.68136 11.0885 6.83404C10.1463 7.99378 8.78929 9.23453 7.10567 10.7738C7.10549 10.774 7.1053 10.7741 7.10512 10.7743L6.50128 11.3232L5.89521 10.7681Z" fill="#BD2929" stroke="#BD2929"/>
<path d="M23.8952 10.7681L23.8945 10.7674C22.2107 9.2313 20.8536 7.99202 19.9114 6.83309C18.975 5.68133 18.5 4.66944 18.5 3.59673C18.5 1.85584 19.852 0.5 21.575 0.5C22.5535 0.5 23.5013 0.960719 24.1184 1.68979L24.5 2.14068L24.8816 1.68979C25.4987 0.960719 26.4465 0.5 27.425 0.5C29.148 0.5 30.5 1.85584 30.5 3.59673C30.5 4.66945 30.025 5.68136 29.0885 6.83404C28.1463 7.99378 26.7893 9.23453 25.1057 10.7738C25.1055 10.774 25.1053 10.7741 25.1051 10.7743L24.5013 11.3232L23.8952 10.7681Z" stroke="#BD2929"/>
</svg>
